<svg width="24" height="24" viewBox="0 0 24 24" fill="none" xmlns="http://www.w3.org/2000/svg">
<path d="M10.4577 2.23704C11.3842 1.5878 12.6172 1.5878 13.5437 2.23704L21.1032 7.53489C21.9721 8.14397 22.402 9.20769 22.2019 10.2497L20.3161 20.0652C20.0727 21.3324 18.9651 22.2496 17.6745 22.2497H6.32687C5.03648 22.2497 3.92893 21.3331 3.68526 20.0661L1.79855 10.2497C1.59825 9.20751 2.02809 8.14401 2.89718 7.53489L10.4577 2.23704ZM12.6833 3.46555C12.2736 3.17841 11.7278 3.17844 11.3181 3.46555L3.75851 8.7634C3.37393 9.03291 3.18238 9.50411 3.2712 9.96653L5.15792 19.7829C5.26602 20.345 5.75702 20.7497 6.32687 20.7497H17.6745C18.2443 20.7496 18.7354 20.3449 18.8435 19.7829L20.7282 9.96653C20.817 9.50415 20.6264 9.03292 20.2419 8.7634L12.6833 3.46555ZM14.5398 16.4079C14.8666 16.1538 15.3372 16.213 15.5915 16.5398C15.8458 16.8666 15.7874 17.3371 15.4607 17.5915C14.5271 18.3183 13.3138 18.7497 11.9997 18.7497C10.6858 18.7497 9.47325 18.3181 8.53976 17.5915C8.21304 17.3372 8.15386 16.8666 8.40792 16.5398C8.6623 16.213 9.1338 16.1537 9.46066 16.4079C10.126 16.9259 11.0135 17.2497 11.9997 17.2497C12.9861 17.2497 13.8743 16.9259 14.5398 16.4079Z" fill="#232323"/>
</svg>
